HIERARCHY
ROOT Hips
{
	OFFSET -3.958830 18.904000 13.208200
	CHANNELS 6 Xposition Yposition Zposition Zrotation Yrotation Xrotation 
	JOINT LHipJoint
	{
		OFFSET 0.000000 0.000000 0.000000
		CHANNELS 3 Zrotation Yrotation Xrotation
		JOINT LeftUpLeg
		{
			OFFSET 1.800000 -1.400000 0.085000
			CHANNELS 3 Zrotation Yrotation Xrotation
			JOINT LeftLeg
			{
				OFFSET 2.215000 -6.000000 0.000000
				CHANNELS 3 Zrotation Yrotation Xrotation
				JOINT LeftFoot
				{
					OFFSET 2.500000 -6.900000 0.000000
					CHANNELS 3 Zrotation Yrotation Xrotation
					JOINT LeftToeBase
					{
						OFFSET 0.200000 -0.500000 1.950000
						CHANNELS 3 Zrotation Yrotation Xrotation
						End Site
						{
							OFFSET 0.000000 0.000000 0.000000
						}
					}
				}
			}
		}
	}
	JOINT RHipJoint
	{
		OFFSET 0.000000 0.000000 0.000000
		CHANNELS 3 Zrotation Yrotation Xrotation
		JOINT RightUpLeg
		{
			OFFSET -1.800000 -1.400000 0.085000
			CHANNELS 3 Zrotation Yrotation Xrotation
			JOINT RightLeg
			{
				OFFSET -2.215000 -6.000000 0.000000
				CHANNELS 3 Zrotation Yrotation Xrotation
				JOINT RightFoot
				{
					OFFSET -2.500000 -6.900000 0.000000
					CHANNELS 3 Zrotation Yrotation Xrotation
					JOINT RightToeBase
					{
						OFFSET -0.200000 -0.500000 1.950000
						CHANNELS 3 Zrotation Yrotation Xrotation
						End Site
						{
							OFFSET 0.000000 0.000000 0.000000
						}
					}
				}
			}
		}
	}
	JOINT LowerBack
	{
		OFFSET 0.000000 0.000000 0.000000
		CHANNELS 3 Zrotation Yrotation Xrotation
		JOINT Spine
		{
			OFFSET -0.087000 1.940000 -0.288900
			CHANNELS 3 Zrotation Yrotation Xrotation
			JOINT Spine1
			{
				OFFSET 0.000000 1.950000 0.060000
				CHANNELS 3 Zrotation Yrotation Xrotation
				JOINT Neck
				{
					OFFSET 0.000000 0.000000 0.000000
					CHANNELS 3 Zrotation Yrotation Xrotation
					JOINT Neck1
					{
						OFFSET 0.000000 1.600000 0.340000
						CHANNELS 3 Zrotation Yrotation Xrotation
						JOINT Head
						{
							OFFSET 0.000000 1.667000 -0.240000
							CHANNELS 3 Zrotation Yrotation Xrotation
							End Site
							{
								OFFSET 0.000000 0.000000 0.000000
							}
						}
					}
				}
				JOINT LeftShoulder
				{
					OFFSET 0.000000 0.000000 0.000000
					CHANNELS 3 Zrotation Yrotation Xrotation
					JOINT LeftArm
					{
						OFFSET 2.700000 1.550000 -0.730000
						CHANNELS 3 Zrotation Yrotation Xrotation
						JOINT LeftForeArm
						{
							OFFSET 5.450000 0.000000 0.000000
							CHANNELS 3 Zrotation Yrotation Xrotation
							JOINT LeftHand
							{
								OFFSET 3.450000 0.000000 0.000000
								CHANNELS 3 Zrotation Yrotation Xrotation
								JOINT LeftHandIndex1
								{
									OFFSET 0.750000 0.000000 0.000000
									CHANNELS 3 Zrotation Yrotation Xrotation
									End Site
									{
										OFFSET 0.000000 0.000000 0.000000
									}
								}
							}
						}
					}
				}
				JOINT RightShoulder
				{
					OFFSET 0.000000 0.000000 0.000000
					CHANNELS 3 Zrotation Yrotation Xrotation
					JOINT RightArm
					{
						OFFSET -2.700000 1.550000 -0.730000
						CHANNELS 3 Zrotation Yrotation Xrotation
						JOINT RightForeArm
						{
							OFFSET -5.450000 0.000000 0.000000
							CHANNELS 3 Zrotation Yrotation Xrotation
							JOINT RightHand
							{
								OFFSET -3.450000 0.000000 0.000000
								CHANNELS 3 Zrotation Yrotation Xrotation
								JOINT RightHandIndex1
								{
									OFFSET -0.750000 0.000000 0.000000
									CHANNELS 3 Zrotation Yrotation Xrotation
									End Site
									{
										OFFSET 0.000000 0.000000 0.000000
									}
								}
							}
						}
					}
				}
			}
		}
	}
}
MOTION
Frames: 10
Frame Time: 0.016667
-10.051960 16.583000 -1.020210 8.060226 59.985499 1.396645 -14.438781 11.604821 1.156943 -15.852422 7.120183 -41.159899 23.982366 2.509246 33.652069 0.336640 4.947672 2.722695 -0.167280 -0.424110 -0.270910 18.895357 -13.488951 3.348411 -17.578549 13.781874 21.143068 6.944497 -9.171891 16.729735 -0.868431 -7.310349 1.966120 -0.357070 0.095950 -0.238230 -8.224723 6.415535 -9.512324 36.206972 5.949918 15.193688 -33.080608 21.655923 29.743926 12.995694 -10.926195 -36.708559 -16.223373 -5.448363 55.614672 31.172790 -27.371450 -16.372530 -10.247294 -0.642381 -5.696357 -76.128460 16.719375 -28.514990 87.212052 -21.517713 -17.381379 -3.329151 3.186842 0.494950 -0.410190 -0.072110 0.000000 -9.597410 34.554924 57.960053 -76.038285 47.782713 -145.039952 53.152753 55.242038 4.954442 3.453472 -3.311613 -0.172580 0.138710 0.116750 0.103290 
-9.900990 16.532760 -1.016120 6.680319 59.063384 0.358660 -14.419902 11.466677 0.894964 -17.378434 7.804061 -42.420475 28.293581 1.755317 35.038883 0.455334 5.680562 2.473189 -0.136250 -0.388180 -0.298570 19.025998 -13.480614 3.186603 -17.512038 14.529226 21.152054 6.959748 -9.312948 17.880095 -0.876715 -7.437019 1.918056 -0.312550 0.147100 -0.214020 -8.432900 6.840676 -9.382357 38.006500 7.382683 13.536371 -32.807599 21.766745 31.264334 13.890671 -11.964158 -34.925209 -18.138782 -4.488982 53.085047 32.534310 -26.402450 -18.497880 -7.801813 -1.240050 -4.981467 -77.282716 14.906066 -25.739476 85.562866 -14.491777 -10.120150 -3.352597 3.329285 0.472560 -0.394720 -0.098650 0.024630 -12.516838 33.662634 57.414908 -78.914850 47.054571 -144.377685 48.660664 61.339423 -1.238010 4.601809 -1.212357 -0.171590 0.152950 0.128940 0.130310 
-9.754540 16.502960 -1.013480 5.916642 57.775543 0.004422 -14.347570 11.112392 0.685251 -18.251108 7.605430 -42.467401 31.155058 1.079528 35.678921 0.562810 6.153276 2.338965 -0.068410 -0.289160 -0.372230 19.288839 -13.361011 2.830471 -17.967083 14.447799 20.668631 6.143518 -9.191557 19.051055 -0.868917 -7.522417 1.894246 -0.228060 0.231780 -0.209680 -8.575833 7.134107 -9.463759 38.551909 7.264148 11.211850 -32.520607 20.886521 34.148550 15.583515 -14.050535 -34.447780 -22.390125 -2.312729 49.783998 33.607480 -25.347300 -19.751560 -5.711753 -2.599243 -4.529257 -79.431696 10.623262 -23.725411 86.048667 -6.455019 -3.665509 -3.311529 3.521686 0.410750 -0.384020 -0.148090 0.108230 -16.176111 37.664573 52.823414 -76.749538 47.202787 -138.192780 41.671754 63.191214 -0.199479 9.121291 0.646496 -0.158470 0.191780 0.122190 0.201800 
-9.608370 16.501450 -1.045700 1.984972 58.929984 -5.068342 -14.798025 11.403761 1.028777 -18.334994 7.172812 -40.841006 36.077107 -0.597116 33.535031 0.667537 6.461601 2.222953 -0.095080 -0.335820 -0.380530 18.814348 -13.115792 2.933497 -14.140203 12.321119 23.251023 3.547348 -8.556588 19.447432 -0.948246 -7.416608 1.944016 -0.275010 0.181780 -0.195650 -8.325140 5.929006 -8.999746 42.089523 4.635597 12.936989 -40.295842 18.275060 33.306490 21.110444 -12.744890 -36.786484 -27.610169 -1.703670 48.129047 36.385940 -27.348910 -22.558680 -3.792654 2.861708 -7.119467 -75.215149 7.619796 -22.234678 85.721195 -9.097595 -6.926289 -3.378252 3.507505 0.442200 -0.418710 -0.126270 0.077110 -28.744842 28.625139 64.979137 -88.745467 26.141697 -137.873083 -43.054945 78.222067 -18.921958 12.291502 -1.028789 -0.138560 0.141620 0.137390 0.190320 
-9.516640 16.479540 -1.026500 4.024693 55.011775 -3.031807 -14.522709 10.812711 0.954205 -16.389342 6.309982 -40.730964 33.520734 -0.401069 39.194470 0.759361 6.981567 2.074023 -0.061440 -0.267830 -0.388780 19.156430 -13.407272 2.728612 -18.468684 13.249429 21.054118 3.726500 -8.588748 19.455450 -0.877934 -7.508750 1.920103 -0.226680 0.214960 -0.216690 -8.248420 6.848107 -9.324343 39.534747 6.706644 13.172549 -33.833214 19.256987 34.334578 17.930869 -15.208888 -34.112145 -29.010910 -3.084054 44.408211 36.954090 -27.780200 -23.018090 -5.081331 -2.207892 -4.022517 -71.143394 3.716471 -22.683610 89.306622 -17.147767 -18.395572 -3.304565 3.434109 0.376920 -0.390310 -0.157460 0.113770 -18.107237 37.787016 52.786127 -65.680603 43.559469 172.942809 83.012517 30.180571 131.812288 3.760193 7.040819 -0.128930 0.168480 0.105650 0.216910 
-9.433540 16.448510 -1.028950 4.696030 48.820133 -1.310006 -14.209767 10.688654 1.171144 -13.246243 5.243507 -41.114692 29.152761 0.933023 43.814498 0.753151 7.336907 1.963097 -0.026520 -0.233780 -0.406000 19.413112 -13.572762 2.520387 -22.615413 13.534276 16.662058 0.797366 -7.458278 19.225355 -0.726223 -7.162485 2.014318 -0.178470 0.281210 -0.163030 -8.185119 7.221485 -9.428922 37.602984 8.011345 12.751752 -33.965233 19.662578 34.517700 17.282561 -14.277715 -33.000194 -25.535211 -3.646286 40.708234 34.809110 -27.059910 -19.590270 -4.055444 -1.814478 -3.417717 -67.472579 1.414741 -22.680576 92.168874 -25.694628 -30.030310 -3.380215 3.402311 0.295780 -0.305680 -0.212420 0.152680 -18.453890 35.351457 54.551635 -67.939202 42.514026 -178.648724 83.343459 46.596864 119.741451 1.463907 12.081999 -0.113190 0.141670 0.105160 0.234120 
-9.359320 16.471530 -1.046360 4.470140 44.603424 -2.088623 -14.049692 10.444800 1.089567 -9.699304 4.855683 -39.451925 26.307576 1.912934 46.188562 0.729324 7.529467 1.930625 0.029850 -0.096420 -0.435090 19.631265 -13.628047 2.384535 -25.050790 12.633078 14.153569 -0.145888 -7.034210 18.588896 -0.670417 -7.042486 2.081365 -0.065860 0.369510 -0.190660 -8.300092 7.443156 -9.575242 36.218074 5.719841 12.135354 -35.111621 16.954026 36.441573 18.271922 -14.071376 -32.456460 -23.641837 -1.524925 37.760930 32.612110 -23.521330 -18.152140 -3.759027 -1.376984 -3.305277 -67.701935 1.417364 -24.386789 95.958295 -27.269542 -35.549432 -3.435378 3.347618 0.234180 -0.236550 -0.249210 0.207280 -20.828830 35.217474 54.578548 -69.994566 39.418208 -178.376480 81.896320 50.821203 119.882980 1.106692 12.517761 -0.132890 0.234420 0.085200 0.265760 
-9.238870 16.465790 -1.104250 1.163062 42.569513 -6.646018 -14.403086 11.223041 1.753846 -5.039508 3.722878 -37.369373 23.565391 2.128114 48.922189 0.677174 7.831083 1.743281 0.104660 -0.084490 -0.219760 19.031063 -13.359667 2.731295 -23.717343 10.111907 15.169788 -0.234936 -6.758622 16.227422 -0.716869 -6.770241 2.137480 -0.074150 0.197660 -0.109780 -7.573405 5.822400 -9.135281 37.161808 2.996409 15.706918 -34.175151 14.990691 34.599435 17.544450 -11.294863 -33.307758 -21.629053 -2.567334 38.604276 28.945520 -22.184000 -19.073050 -7.224557 1.878677 -5.545703 -61.713756 0.361086 -21.580999 95.757423 -36.722334 -44.001652 -3.439529 3.153913 0.344950 -0.266640 -0.138440 0.116950 -19.016311 22.619059 61.161932 -78.772799 37.221559 -153.132205 69.393127 82.458569 104.127621 0.801496 18.507943 -0.103170 0.133860 0.047310 0.139550 
-9.148000 16.507820 -1.141090 -0.171517 39.412657 -9.475366 -14.433450 12.050964 2.395711 -1.451446 2.845470 -34.708483 19.162949 3.661921 50.614911 0.709130 7.859092 1.717096 0.120220 -0.043870 -0.121400 18.694826 -13.245073 3.046673 -23.768022 8.103795 14.582911 -0.391905 -6.421445 14.790005 -0.689379 -6.381660 2.296542 -0.099280 0.101720 -0.117180 -7.321608 4.127141 -9.658194 36.528521 -1.415333 22.150203 -34.713262 11.733976 30.402055 15.962676 -8.692796 -36.236955 -20.102372 -2.741930 42.004679 26.879920 -21.402700 -18.378180 -10.018073 3.967531 -7.877479 -55.175570 -0.182150 -19.675140 94.890206 -41.816484 -48.861356 -3.381127 2.950440 0.377740 -0.277900 -0.057820 0.083700 -18.972818 15.603158 64.823232 -83.471937 37.097732 -151.875151 56.171688 88.387951 92.219859 4.445769 18.754939 -0.071440 0.113670 -0.013450 0.093600 
-9.073060 16.533040 -1.189280 -1.130136 37.613545 -10.540765 -14.510709 11.428590 2.348180 1.522162 1.369864 -32.601964 14.262674 5.422250 51.932055 0.622409 8.040329 1.633164 0.186540 -0.014770 0.031290 18.736399 -13.414454 2.922464 -24.238697 6.136202 12.861064 -0.253450 -6.547844 13.995130 -0.729385 -6.390448 2.258110 -0.069440 0.033300 -0.045460 -7.068570 5.703571 -8.955258 36.376504 5.447521 20.628760 -19.006588 16.170675 22.476568 6.359046 -8.485572 -22.271016 -10.530677 -4.589044 44.041417 21.552190 -17.423710 -17.071970 -13.518356 -12.268231 5.838568 -51.366006 3.672788 -17.144735 100.176047 -48.325938 -60.120499 -3.366225 2.712418 0.429680 -0.246820 -0.007460 0.043130 4.615197 32.710550 25.114895 17.539590 35.132507 -30.040982 -120.687886 79.196868 -93.831112 3.769223 3.474824 -0.072590 0.065200 -0.037340 0.001950 
